<svg width="34" height="28" viewBox="0 0 34 28" fill="none" xmlns="http://www.w3.org/2000/svg">
<path fill-rule="evenodd" clip-rule="evenodd" d="M17.0005 0C7.62688 0 0 7.80276 0 17.3957C0 20.9625 1.05836 24.3979 3.05985 27.3351C3.34288 27.7497 3.80687 28 4.30219 28H12.2316C12.2316 25.3732 14.0438 23.0276 16.5537 22.7931L20.3818 15.4659C20.7781 14.711 21.6999 14.4256 22.4349 14.8299C23.1708 15.2322 23.4506 16.1723 23.0565 16.9282L19.6075 23.5252C20.9974 24.4156 21.9697 26.1974 21.9697 28H29.6977C30.1912 28 30.655 27.7519 30.9402 27.3351C32.9415 24.3979 34 20.9625 34 17.3957C34.0021 7.80379 26.3751 0 17.0005 0ZM17.0005 5.03845C18.0255 5.03845 18.8544 5.8875 18.8544 6.93511C18.8544 7.98168 18.0255 8.83073 17.0005 8.83073C15.9765 8.83073 15.1486 7.98168 15.1486 6.93511C15.1486 5.88853 15.9765 5.03845 17.0005 5.03845ZM5.71334 17.7949C5.71334 18.8414 6.54224 19.6905 7.56723 19.6905C8.59023 19.6905 9.41913 18.8414 9.41913 17.7949C9.41913 16.7462 8.59023 15.8982 7.56723 15.8982C6.54224 15.8982 5.71334 16.7462 5.71334 17.7949ZM24.582 17.7949C24.582 18.8414 25.4097 19.6905 26.4359 19.6905C27.4588 19.6905 28.2897 18.8414 28.2897 17.7949C28.2897 16.7462 27.4588 15.8982 26.4359 15.8982C25.4097 15.8982 24.582 16.7462 24.582 17.7949Z" fill="#C23C3C"/>
</svg>
